<svg width="140" height="39" viewBox="0 0 140 39" fill="none" xmlns="http://www.w3.org/2000/svg">
<path d="M22.8733 6.24589C31.8566 6.54533 34.1025 11.1867 34.1025 11.1867C34.1025 11.1867 20.328 10.7376 17.4833 11.1867C14.6386 11.6359 12.243 14.4806 12.243 14.4806C12.243 14.4806 13.89 5.94644 22.8733 6.24589Z" fill="#2B2B2B"/>
<path d="M20.4777 1.00559C32.0063 1.30503 35.7494 10.7375 35.7494 10.7375C35.7494 10.7375 30.06 4.44922 21.975 4.74864C13.89 5.04807 11.7938 11.3364 11.7938 11.3364C11.7938 11.3364 9.84748 16.8759 10.7458 20.9184C11.6441 24.9609 14.7883 26.9075 14.7883 26.9075C14.7883 26.9075 6.40387 26.9073 6.25412 14.1811C6.1044 12.5342 8.94912 0.706144 20.4777 1.00559Z" fill="#2B2B2B"/>
<path d="M1.31332 21.9665C-1.08224 13.582 11.0453 3.25121 11.0453 3.25121C11.0453 3.25121 4.78647 10.1384 5.2061 13.7318C5.62572 17.3251 4.15762 19.5709 7.15248 23.9129C12.1095 31.0995 25.8678 28.1051 25.8678 28.1051C25.8678 28.1051 22.8733 32.447 13.2911 32.8962C11.4949 32.7465 3.70887 30.3509 1.31332 21.9665Z" fill="#2B2B2B"/>
<path d="M17.0337 37.837C6.25412 36.1901 3.25928 27.5062 3.25928 27.5062C3.25928 27.5062 8.49956 34.2959 17.7823 33.9443C27.0651 33.5926 26.9154 28.1051 26.9154 28.1051H32.1557C32.1557 28.1051 27.8133 39.484 17.0337 37.837Z" fill="#2B2B2B"/>
<path d="M35.7494 28.1051H33.054C31.9197 31.52 30.5092 33.1359 27.664 35.8906C31.2949 33.1407 33.2615 31.5572 35.7494 28.1051Z" fill="#2B2B2B"/>
<path d="M22.8733 6.24589C31.8566 6.54533 34.1025 11.1867 34.1025 11.1867C34.1025 11.1867 20.328 10.7376 17.4833 11.1867C14.6386 11.6359 12.243 14.4806 12.243 14.4806C12.243 14.4806 13.89 5.94644 22.8733 6.24589Z" stroke="#323232" stroke-width="0.299444"/>
<path d="M20.4777 1.00559C32.0063 1.30503 35.7494 10.7375 35.7494 10.7375C35.7494 10.7375 30.06 4.44922 21.975 4.74864C13.89 5.04807 11.7938 11.3364 11.7938 11.3364C11.7938 11.3364 9.84748 16.8759 10.7458 20.9184C11.6441 24.9609 14.7883 26.9075 14.7883 26.9075C14.7883 26.9075 6.40387 26.9073 6.25412 14.1811C6.1044 12.5342 8.94912 0.706144 20.4777 1.00559Z" stroke="#323232" stroke-width="0.299444"/>
<path d="M1.31332 21.9665C-1.08224 13.582 11.0453 3.25121 11.0453 3.25121C11.0453 3.25121 4.78647 10.1384 5.2061 13.7318C5.62572 17.3251 4.15762 19.5709 7.15248 23.9129C12.1095 31.0995 25.8678 28.1051 25.8678 28.1051C25.8678 28.1051 22.8733 32.447 13.2911 32.8962C11.4949 32.7465 3.70887 30.3509 1.31332 21.9665Z" stroke="#323232" stroke-width="0.299444"/>
<path d="M17.0337 37.837C6.25412 36.1901 3.25928 27.5062 3.25928 27.5062C3.25928 27.5062 8.49956 34.2959 17.7823 33.9443C27.0651 33.5926 26.9154 28.1051 26.9154 28.1051H32.1557C32.1557 28.1051 27.8133 39.484 17.0337 37.837Z" stroke="#323232" stroke-width="0.299444"/>
<path d="M35.7494 28.1051H33.054C31.9197 31.52 30.5092 33.1359 27.664 35.8906C31.2949 33.1407 33.2615 31.5572 35.7494 28.1051Z" stroke="#323232" stroke-width="0.299444"/>
<path d="M24.0354 13.9718V22.5H22.1669V16.583H22.1309L18.9209 22.5H16.8128V13.9718H18.6813V19.8769H18.7173L21.9273 13.9718H24.0354ZM31.1467 22.5H29.4579V19.9008H27.0743V22.5H25.3854V16.3195H27.0743V18.5593H29.4579V16.3195H31.1467V22.5ZM37.5461 17.625H35.5099V22.5H33.8211V17.625H31.7848V16.3195H37.5461V17.625ZM43.7497 20.5836C43.558 21.2463 43.2027 21.7614 42.6837 22.1287C42.1726 22.496 41.5618 22.6797 40.8511 22.6797C39.9008 22.6797 39.1343 22.3842 38.5513 21.7933C37.9764 21.2024 37.6889 20.4199 37.6889 19.4457C37.6889 18.4874 37.9804 17.6969 38.5633 17.0741C39.1462 16.4512 39.8889 16.1398 40.7912 16.1398C41.7254 16.1398 42.4681 16.4592 43.019 17.098C43.57 17.7289 43.8455 18.5873 43.8455 19.6732V19.8409H39.4137C39.4217 20.3759 39.5495 20.7832 39.797 21.0627C40.0526 21.3421 40.4079 21.4819 40.863 21.4819C41.4619 21.4819 41.8812 21.1824 42.1207 20.5836H43.7497ZM42.1207 18.7629C42.0808 18.3557 41.949 18.0243 41.7254 17.7688C41.5019 17.5053 41.1904 17.3735 40.7912 17.3735C40.4159 17.3735 40.1045 17.4973 39.8569 17.7448C39.6094 17.9924 39.4616 18.3317 39.4137 18.7629H42.1207ZM46.2736 16.3195V17.086C46.7208 16.4632 47.3596 16.1518 48.1901 16.1518C49.0205 16.1518 49.6873 16.4512 50.1904 17.0501C50.6934 17.649 50.945 18.4475 50.945 19.4457C50.945 20.4119 50.6974 21.1904 50.2023 21.7813C49.7152 22.3643 49.0684 22.6557 48.2619 22.6557C47.4315 22.6557 46.7967 22.3483 46.3575 21.7334V24.6919H44.6686V16.3195H46.2736ZM47.7709 17.5172C47.3077 17.5172 46.9444 17.6849 46.6809 18.0203C46.4254 18.3557 46.2976 18.8228 46.2976 19.4217C46.2976 20.0206 46.4293 20.4877 46.6929 20.8231C46.9564 21.1585 47.3197 21.3262 47.7828 21.3262C48.238 21.3262 48.5933 21.1585 48.8489 20.8231C49.1124 20.4877 49.2441 20.0286 49.2441 19.4457C49.2441 18.8468 49.1124 18.3757 48.8489 18.0323C48.5853 17.6889 48.226 17.5172 47.7709 17.5172ZM57.6265 22.5H55.9376V19.9008H53.5541V22.5H51.8652V16.3195H53.5541V18.5593H55.9376V16.3195H57.6265V22.5ZM64.6008 20.5836C64.4092 21.2463 64.0539 21.7614 63.5348 22.1287C63.0238 22.496 62.4129 22.6797 61.7022 22.6797C60.752 22.6797 59.9854 22.3842 59.4025 21.7933C58.8276 21.2024 58.5401 20.4199 58.5401 19.4457C58.5401 18.4874 58.8316 17.6969 59.4145 17.0741C59.9974 16.4512 60.74 16.1398 61.6423 16.1398C62.5766 16.1398 63.3192 16.4592 63.8702 17.098C64.4212 17.7289 64.6967 18.5873 64.6967 19.6732V19.8409H60.2649C60.2729 20.3759 60.4006 20.7832 60.6482 21.0627C60.9037 21.3421 61.259 21.4819 61.7142 21.4819C62.3131 21.4819 62.7323 21.1824 62.9719 20.5836H64.6008ZM62.9719 18.7629C62.9319 18.3557 62.8002 18.0243 62.5766 17.7688C62.353 17.5053 62.0416 17.3735 61.6423 17.3735C61.267 17.3735 60.9556 17.4973 60.7081 17.7448C60.4605 17.9924 60.3128 18.3317 60.2649 18.7629H62.9719ZM70.5435 17.625H68.5073V22.5H66.8184V17.625H64.7822V16.3195H70.5435V17.625ZM79.5666 17.625H77.5304V22.5H75.8415V17.625H73.8053V16.3195H79.5666V17.625ZM85.7702 20.5836C85.5785 21.2463 85.2232 21.7614 84.7041 22.1287C84.1931 22.496 83.5822 22.6797 82.8715 22.6797C81.9213 22.6797 81.1547 22.3842 80.5718 21.7933C79.9969 21.2024 79.7094 20.4199 79.7094 19.4457C79.7094 18.4874 80.0009 17.6969 80.5838 17.0741C81.1667 16.4512 81.9093 16.1398 82.8117 16.1398C83.7459 16.1398 84.4885 16.4592 85.0395 17.098C85.5905 17.7289 85.866 18.5873 85.866 19.6732V19.8409H81.4342C81.4422 20.3759 81.57 20.7832 81.8175 21.0627C82.073 21.3421 82.4284 21.4819 82.8835 21.4819C83.4824 21.4819 83.9016 21.1824 84.1412 20.5836H85.7702ZM84.1412 18.7629C84.1013 18.3557 83.9695 18.0243 83.7459 17.7688C83.5223 17.5053 83.2109 17.3735 82.8117 17.3735C82.4364 17.3735 82.1249 17.4973 81.8774 17.7448C81.6298 17.9924 81.4821 18.3317 81.4342 18.7629H84.1412ZM92.0242 16.3195L89.988 19.2061L92.2758 22.5H90.3354L89.0298 20.4997L87.7362 22.5H85.8078L88.0596 19.242L86.0114 16.3195H87.9518L89.0538 17.9724L90.1437 16.3195H92.0242ZM98.5475 22.5H96.8586V19.9008H94.475V22.5H92.7861V16.3195H94.475V18.5593H96.8586V16.3195H98.5475V22.5ZM105.917 19.4097C105.917 20.3999 105.626 21.1944 105.043 21.7933C104.468 22.3922 103.697 22.6916 102.731 22.6916C101.765 22.6916 100.99 22.3922 100.407 21.7933C99.8244 21.1944 99.5329 20.3999 99.5329 19.4097C99.5329 18.4276 99.8284 17.637 100.419 17.0381C101.01 16.4392 101.789 16.1398 102.755 16.1398C103.705 16.1398 104.468 16.4392 105.043 17.0381C105.626 17.637 105.917 18.4276 105.917 19.4097ZM104.216 19.3978C104.216 18.7829 104.08 18.3038 103.809 17.9604C103.545 17.6091 103.178 17.4334 102.707 17.4334C102.252 17.4334 101.893 17.6091 101.629 17.9604C101.366 18.3118 101.234 18.7949 101.234 19.4097C101.234 20.0406 101.366 20.5317 101.629 20.883C101.893 21.2343 102.26 21.41 102.731 21.41C103.202 21.41 103.565 21.2343 103.821 20.883C104.084 20.5237 104.216 20.0286 104.216 19.3978ZM112.424 22.5H110.735V17.625H109.106L109.034 19.805C109.026 20.0446 109.018 20.2362 109.01 20.3799C109.002 20.5157 108.978 20.6993 108.938 20.9309C108.907 21.1625 108.867 21.3501 108.819 21.4939C108.771 21.6296 108.695 21.7853 108.591 21.961C108.495 22.1287 108.379 22.2604 108.244 22.3563C108.116 22.4441 107.948 22.52 107.741 22.5838C107.533 22.6557 107.301 22.6916 107.046 22.6916C106.631 22.6916 106.323 22.6517 106.124 22.5719V21.2184C106.323 21.2583 106.483 21.2783 106.603 21.2783C107.09 21.2783 107.345 20.8511 107.369 19.9966L107.465 16.3195H112.424V22.5ZM119.83 19.4097C119.83 20.3999 119.538 21.1944 118.955 21.7933C118.38 22.3922 117.61 22.6916 116.643 22.6916C115.677 22.6916 114.903 22.3922 114.32 21.7933C113.737 21.1944 113.445 20.3999 113.445 19.4097C113.445 18.4276 113.741 17.637 114.332 17.0381C114.923 16.4392 115.701 16.1398 116.667 16.1398C117.618 16.1398 118.38 16.4392 118.955 17.0381C119.538 17.637 119.83 18.4276 119.83 19.4097ZM118.129 19.3978C118.129 18.7829 117.993 18.3038 117.721 17.9604C117.458 17.6091 117.091 17.4334 116.619 17.4334C116.164 17.4334 115.805 17.6091 115.541 17.9604C115.278 18.3118 115.146 18.7949 115.146 19.4097C115.146 20.0406 115.278 20.5317 115.541 20.883C115.805 21.2343 116.172 21.41 116.643 21.41C117.115 21.41 117.478 21.2343 117.733 20.883C117.997 20.5237 118.129 20.0286 118.129 19.3978ZM125.493 17.625H122.51V22.5H120.822V16.3195H125.493V17.625ZM131.861 22.5H130.232V18.3198L128.028 22.5H126.099V16.3195H127.728V20.4997L129.932 16.3195H131.861V22.5ZM138.811 22.5H137.182V18.3198L134.978 22.5H133.05V16.3195H134.679V20.4997L136.883 16.3195H138.811V22.5Z" fill="#2B2B2B"/>
</svg>
